<?xml version="1.0" encoding="UTF-8"?>
<svg width="59px" height="59px" viewBox="0 0 59 59" version="1.1" xmlns="http://www.w3.org/2000/svg" xmlns:xlink="http://www.w3.org/1999/xlink" xmlns:sketch="http://www.bohemiancoding.com/sketch/ns">
    <!-- Generator: Sketch 3.4 (15575) - http://www.bohemiancoding.com/sketch -->
    <title>file1</title>
    <desc>Created with Sketch.</desc>
    <defs></defs>
    <g id="Page-1" stroke="none" stroke-width="1" fill="none" fill-rule="evenodd" sketch:type="MSPage">
        <g id="file" sketch:type="MSLayerGroup">
            <g id="Group" transform="translate(4.000000, 0.000000)" sketch:type="MSShapeGroup">
                <g id="Shape">
                    <path d="M45,14 L31,0 L0,0 L0,58 L45,58 L45,14 Z" fill="#EFEBDE"></path>
                    <g transform="translate(9.000000, 13.000000)" fill="#D5D0BB">
                        <path d="M1,10 L26,10 C26.552,10 27,9.553 27,9 C27,8.447 26.552,8 26,8 L1,8 C0.448,8 0,8.447 0,9 C0,9.553 0.448,10 1,10 L1,10 Z"></path>
                        <path d="M1,2 L11,2 C11.552,2 12,1.553 12,1 C12,0.447 11.552,0 11,0 L1,0 C0.448,0 0,0.447 0,1 C0,1.553 0.448,2 1,2 L1,2 Z"></path>
                        <path d="M26,16 L1,16 C0.448,16 0,16.447 0,17 C0,17.553 0.448,18 1,18 L26,18 C26.552,18 27,17.553 27,17 C27,16.447 26.552,16 26,16 L26,16 Z"></path>
                        <path d="M26,24 L1,24 C0.448,24 0,24.447 0,25 C0,25.553 0.448,26 1,26 L26,26 C26.552,26 27,25.553 27,25 C27,24.447 26.552,24 26,24 L26,24 Z"></path>
                        <path d="M26,32 L1,32 C0.448,32 0,32.447 0,33 C0,33.553 0.448,34 1,34 L26,34 C26.552,34 27,33.553 27,33 C27,32.447 26.552,32 26,32 L26,32 Z"></path>
                    </g>
                    <path d="M31,0 L31,14 L45,14 L31,0 Z" fill="#D5D0BB"></path>
                </g>
                <g transform="translate(28.000000, 34.000000)">
                    <circle id="Oval" fill="#8697CB" cx="12.5" cy="12.5" r="12.5"></circle>
                    <g transform="translate(2.000000, 1.000000)" id="Shape" fill="#FFFFFF">
                        <path d="M19.018,12.807 C18.198,16.975 14.616,20 10.5,20 C7.149,20 4.153,17.994 2.711,15 L8,15 L8,13 L2,13 L1,13 L0,13 L0,21 L2,21 L2,17.659 C3.976,20.315 7.085,22 10.5,22 C15.568,22 19.977,18.296 20.981,13.193 C21.087,12.651 20.735,12.125 20.193,12.019 C19.643,11.906 19.125,12.265 19.018,12.807 Z"></path>
                        <path d="M19,1.998 L19,5.339 C17.024,2.682 13.914,0.998 10.5,0.998 C5.432,0.998 1.023,4.702 0.019,9.805 C-0.087,10.347 0.265,10.873 0.807,10.979 C1.357,11.092 1.875,10.733 1.982,10.191 C2.802,6.023 6.384,2.998 10.501,2.998 C13.852,2.998 16.848,5.004 18.29,7.998 L13,7.998 L13,9.998 L19,9.998 L20,9.998 L21,9.998 L21,1.998 L19,1.998 L19,1.998 Z"></path>
                    </g>
                </g>
            </g>
        </g>
    </g>
</svg>