<?xml version="1.0" encoding="UTF-8"?>
<svg width="48px" height="58px" viewBox="0 0 48 58" version="1.1" xmlns="http://www.w3.org/2000/svg" xmlns:xlink="http://www.w3.org/1999/xlink" xmlns:sketch="http://www.bohemiancoding.com/sketch/ns">
    <!-- Generator: Sketch 3.4 (15575) - http://www.bohemiancoding.com/sketch -->
    <title>note</title>
    <desc>Created with Sketch.</desc>
    <defs></defs>
    <g id="Page-1" stroke="none" stroke-width="1" fill="none" fill-rule="evenodd" sketch:type="MSPage">
        <g id="notepad" sketch:type="MSLayerGroup">
            <g id="Group" sketch:type="MSShapeGroup">
                <g>
                    <path d="M32.5,2 L28.5,2 L28.5,5 L19.5,5 L19.5,2 L15.5,2 L0.5,2 L0.5,58 L47.5,58 L47.5,2 L32.5,2 Z" id="Shape" fill="#545E73"></path>
                    <rect id="Rectangle-path" fill="#404656" x="19.5" y="0" width="9" height="5"></rect>
                    <path d="M35.5,5 L35.5,8 L12.5,8 L12.5,5 L3.5,5 L3.5,55 L44.5,55 L44.5,5 L35.5,5 Z" id="Shape" fill="#EFEBDE"></path>
                    <path d="M28.5,2 L28.5,5 L19.5,5 L19.5,2 L12.5,2 L12.5,8 L35.5,8 L35.5,2 L28.5,2 Z" id="Shape" fill="#8697CB"></path>
                    <path d="M22.5,16 L9.5,16 C8.947,16 8.5,15.553 8.5,15 C8.5,14.447 8.947,14 9.5,14 L22.5,14 C23.053,14 23.5,14.447 23.5,15 C23.5,15.553 23.053,16 22.5,16 L22.5,16 Z" id="Shape" fill="#D5D0BB"></path>
                    <path d="M22.5,47 L9.5,47 C8.947,47 8.5,46.553 8.5,46 C8.5,45.447 8.947,45 9.5,45 L22.5,45 C23.053,45 23.5,45.447 23.5,46 C23.5,46.553 23.053,47 22.5,47 L22.5,47 Z" id="Shape" fill="#D5D0BB"></path>
                    <path d="M38.5,22 L9.5,22 C8.947,22 8.5,21.553 8.5,21 C8.5,20.447 8.947,20 9.5,20 L38.5,20 C39.053,20 39.5,20.447 39.5,21 C39.5,21.553 39.053,22 38.5,22 L38.5,22 Z" id="Shape" fill="#D5D0BB"></path>
                    <path d="M38.5,34 L9.5,34 C8.947,34 8.5,33.553 8.5,33 C8.5,32.447 8.947,32 9.5,32 L38.5,32 C39.053,32 39.5,32.447 39.5,33 C39.5,33.553 39.053,34 38.5,34 L38.5,34 Z" id="Shape" fill="#D5D0BB"></path>
                    <path d="M38.5,41 L9.5,41 C8.947,41 8.5,40.553 8.5,40 C8.5,39.447 8.947,39 9.5,39 L38.5,39 C39.053,39 39.5,39.447 39.5,40 C39.5,40.553 39.053,41 38.5,41 L38.5,41 Z" id="Shape" fill="#D5D0BB"></path>
                    <path d="M23.5,28 L9.5,28 C8.947,28 8.5,27.553 8.5,27 C8.5,26.447 8.947,26 9.5,26 L23.5,26 C24.053,26 24.5,26.447 24.5,27 C24.5,27.553 24.053,28 23.5,28 L23.5,28 Z" id="Shape" fill="#D5D0BB"></path>
                    <path d="M38.5,28 L31.5,28 C30.947,28 30.5,27.553 30.5,27 C30.5,26.447 30.947,26 31.5,26 L38.5,26 C39.053,26 39.5,26.447 39.5,27 C39.5,27.553 39.053,28 38.5,28 L38.5,28 Z" id="Shape" fill="#D5D0BB"></path>
                    <path d="M27.5,28 C27.229,28 26.979,27.899 26.79,27.71 C26.609,27.52 26.5,27.26 26.5,27 C26.5,26.729 26.6,26.479 26.79,26.29 C27.17,25.91 27.83,25.92 28.21,26.29 C28.399,26.479 28.5,26.729 28.5,27 C28.5,27.27 28.39,27.52 28.21,27.71 C28.02,27.89 27.77,28 27.5,28 L27.5,28 Z" id="Shape" fill="#D5D0BB"></path>
                </g>
            </g>
        </g>
    </g>
</svg>